<?xml version="1.0" encoding="UTF-8"?>
<svg version="1.1" xmlns="http://www.w3.org/2000/svg" width="500" height="500">
<path d="M0 0 C165 0 330 0 500 0 C500 165 500 330 500 500 C335 500 170 500 0 500 C0 335 0 170 0 0 Z " fill="#0A0802" transform="translate(0,0)"/>
<path d="M0 0 C82.5 0 165 0 250 0 C243.43198023 17.07685141 236.91569372 26.85883958 222.6875 37.4375 C221.18299955 38.5721292 219.67909052 39.70754305 218.17578125 40.84375 C217.45729004 41.38515625 216.73879883 41.9265625 215.99853516 42.484375 C212.63607817 45.03435459 209.33382202 47.65389419 206.06640625 50.32421875 C204.76571506 51.37903259 203.44239175 52.40708823 202.08984375 53.39453125 C193.31208457 60.08877836 189.176017 70.4722225 187 81 C185.70684939 80.04367001 184.41553147 79.08486149 183.125 78.125 C182.40570313 77.59132813 181.68640625 77.05765625 180.9453125 76.5078125 C179 75 179 75 177 73 C176.93941406 73.75925781 176.87882813 74.51851563 176.81640625 75.30078125 C176.73261719 76.29464844 176.64882812 77.28851563 176.5625 78.3125 C176.44068359 79.79169922 176.44068359 79.79169922 176.31640625 81.30078125 C176 84 176 84 175 87 C171.99884257 85.90867003 169.48340553 84.68209571 166.75 83 C154.35704093 75.91830911 138.47975603 78.8348423 125 80.5 C105.54744366 82.86138134 92.00682608 81.82207349 74 74 C74.42152344 75.03640625 74.84304687 76.0728125 75.27734375 77.140625 C75.83086716 78.51036091 76.38424494 79.88015568 76.9375 81.25 C77.21529297 81.93191406 77.49308594 82.61382812 77.77929688 83.31640625 C82.88522007 95.98893852 81.58137686 109.35321819 79.5 122.625 C75.69500348 147.58866237 75.69500348 147.58866237 83 171 C83.99 172.65 84.98 174.3 86 176 C81.71 176.33 77.42 176.66 73 177 C73.97453125 178.04800781 73.97453125 178.04800781 74.96875 179.1171875 C75.8040625 180.02726563 76.639375 180.93734375 77.5 181.875 C78.3353125 182.77992188 79.170625 183.68484375 80.03125 184.6171875 C82 187 82 187 82 189 C81.23816406 189.15855469 80.47632812 189.31710938 79.69140625 189.48046875 C68.31440211 192.05130239 59.37000258 196.47991863 52 205.75 C51.2265625 206.71292969 50.453125 207.67585937 49.65625 208.66796875 C49.23472656 209.19696777 48.81320313 209.7259668 48.37890625 210.27099609 C44.12646557 215.60311098 39.83059207 220.89965676 35.5 226.16845703 C34.19769973 227.75860296 32.91001081 229.36069374 31.625 230.96484375 C23.76087041 240.346866 13.49048802 246.05743978 2 250 C5.09664131 252.06442754 8.18824591 253.49574975 11.5625 255.0625 C25.10614426 261.63213899 33.87626421 273.05910077 42.671875 284.90625 C46.30238641 289.73068799 50.08661293 294.40286129 54 299 C54.54914062 299.6703125 55.09828125 300.340625 55.6640625 301.03125 C62.14701197 308.31259226 71.4616051 311.9642652 81 313 C78.94544813 317.69018912 75.6565945 320.47883493 72 324 C76.95 324.33 81.9 324.66 87 325 C85.25066721 329.37333197 83.28571203 333.42899968 81.12109375 337.59765625 C75.36647962 349.92897224 78.85079179 370.6277343 81.5390625 383.6015625 C84.16398565 397.26006095 81.07220329 409.38076673 76 422 C75.60554688 422.99386719 75.21109375 423.98773438 74.8046875 425.01171875 C74.53914063 425.66785156 74.27359375 426.32398438 74 427 C74.96421875 426.57847656 75.9284375 426.15695312 76.921875 425.72265625 C78.19784676 425.16910968 79.47389233 424.61573319 80.75 424.0625 C81.38421875 423.78470703 82.0184375 423.50691406 82.671875 423.22070312 C96.97338447 417.03827976 114.48233902 419.40038411 129.5625 421.5 C145.82794066 423.74918182 159.98438349 425.06249391 174 415 C174.66 415 175.32 415 176 415 C176.33 419.29 176.66 423.58 177 428 C177.69867188 427.3503125 178.39734375 426.700625 179.1171875 426.03125 C180.02726563 425.1959375 180.93734375 424.360625 181.875 423.5 C182.77992188 422.6646875 183.68484375 421.829375 184.6171875 420.96875 C187 419 187 419 189 419 C189.21914062 419.90621094 189.43828125 420.81242187 189.6640625 421.74609375 C193.756539 437.46719249 201.84686641 445.89604408 214.44750977 455.66259766 C220.79879072 460.58801226 226.9345287 465.72821985 233 471 C233.68835938 471.55558594 234.37671875 472.11117188 235.0859375 472.68359375 C242.80558921 479.40772476 246.84062904 490.52188711 250 500 C167.5 500 85 500 0 500 C0 335 0 170 0 0 Z " fill="#F9CD43" transform="translate(0,0)"/>
<path d="M0 0 C1.74791568 1.52037636 3.47761442 3.06197576 5.1875 4.625 C6.02796875 5.37265625 6.8684375 6.1203125 7.734375 6.890625 C24.99316406 23.07743959 36.28028031 46.85144802 37.31201172 70.47607422 C37.93133256 94.42186468 37.93133256 94.42186468 34.1875 105.625 C33.78091737 106.96604503 33.37469247 108.30719855 32.96875 109.6484375 C24.90838793 135.20476508 7.53319979 155.1711454 -15.81640625 168.1328125 C-39.89374062 180.12439233 -68.54482552 182.4554215 -94.2890625 174.55859375 C-120.1904526 165.19329399 -141.35170982 147.02210105 -153.1875 122.0625 C-156.37146003 115.09763627 -158.93648354 108.05994946 -160.8125 100.625 C-161.03679687 99.80902344 -161.26109375 98.99304688 -161.4921875 98.15234375 C-167.22307334 73.38392619 -160.70201034 46.69402122 -147.64453125 25.38671875 C-131.95205995 1.73090381 -109.9658943 -13.12987532 -82.53125 -19.6484375 C-53.77328446 -25.26711564 -23.07297434 -18.41932789 0 0 Z " fill="#F7CB43" transform="translate(312.8125,171.375)"/>
<path d="M0 0 C82.17 0 164.34 0 249 0 C249 82.5 249 165 249 250 C229.65452379 243.55150793 219.31137774 232.38932292 207.56079102 216.4284668 C196.6805752 201.70065774 187.16820833 191.7737178 169 187 C170.92287034 182.70621187 173.62478869 180.22846299 177 177 C175.62714844 176.92652344 175.62714844 176.92652344 174.2265625 176.8515625 C173.03804687 176.77679688 171.84953125 176.70203125 170.625 176.625 C169.44164062 176.55539063 168.25828125 176.48578125 167.0390625 176.4140625 C164 176 164 176 162 174 C162.59748047 173.09121094 162.59748047 173.09121094 163.20703125 172.1640625 C172.46875558 157.51656659 171.47416358 144.69051808 169.5 127.9375 C167.31020498 107.56271693 166.43458883 92.52717989 176 74 C174.81921875 74.42152344 173.6384375 74.84304687 172.421875 75.27734375 C170.86461798 75.83082667 169.3073244 76.3842067 167.75 76.9375 C166.97269531 77.21529297 166.19539062 77.49308594 165.39453125 77.77929688 C164.64042969 78.04677734 163.88632812 78.31425781 163.109375 78.58984375 C162.41811523 78.83597412 161.72685547 79.08210449 161.01464844 79.33569336 C150.13825472 82.92205634 138.10259412 81.14634171 127 79.5 C118.52749091 78.2786151 110.18690621 77.64375178 101.625 77.5625 C100.08392578 77.52962891 100.08392578 77.52962891 98.51171875 77.49609375 C91.79465385 77.51374701 86.87396817 78.75997339 81 82 C80.30720947 82.37874268 79.61441895 82.75748535 78.90063477 83.14770508 C77.2525769 84.07308517 75.62377534 85.03264448 74 86 C73.67 81.38 73.34 76.76 73 72 C71.7625 73.27875 70.525 74.5575 69.25 75.875 C66.64961936 78.56205999 64.45201639 80.52278578 61 82 C60.85304688 81.24976562 60.70609375 80.49953125 60.5546875 79.7265625 C56.86147385 62.87362206 46.76437897 53.99747741 33.671875 43.87109375 C27.95483786 39.43175075 22.46192092 34.74720675 17 30 C16.31164062 29.44441406 15.62328125 28.88882812 14.9140625 28.31640625 C6.92526783 21.35784076 2.82720543 9.89521899 0 0 Z " fill="#F9CD43" transform="translate(251,0)"/>
<path d="M0 0 C0 82.17 0 164.34 0 249 C-82.17 249 -164.34 249 -249 249 C-242.6704615 230.0113845 -232.82416699 220.24963209 -217.16748047 208.61230469 C-196.94926098 194.03052001 -196.94926098 194.03052001 -187.1875 171.8125 C-187.0946875 170.4203125 -187.0946875 170.4203125 -187 169 C-182.57238086 170.39153744 -180.0443745 172.52071486 -177 176 C-177 176.66 -177 177.32 -177 178 C-176.34 178 -175.68 178 -175 178 C-175 172.72 -175 167.44 -175 162 C-172.15997333 163.42001334 -169.52529945 164.87923821 -166.8125 166.5 C-154.35971733 173.3753963 -140.40492988 171.09132204 -126.8125 169.5 C-107.46231601 167.4310817 -90.67856518 166.44151069 -73 176 C-73.42152344 174.97519531 -73.84304688 173.95039063 -74.27734375 172.89453125 C-74.8309603 171.53394819 -75.38433286 170.17326584 -75.9375 168.8125 C-76.21529297 168.13896484 -76.49308594 167.46542969 -76.77929688 166.77148438 C-77.18051758 165.78051758 -77.18051758 165.78051758 -77.58984375 164.76953125 C-77.83597412 164.16729736 -78.08210449 163.56506348 -78.33569336 162.94458008 C-82.56120791 150.57551597 -80.5689425 134.94582347 -78.5 122.3125 C-76.28785766 108.6150803 -74.33973659 93.73550369 -81 81 C-81.3815625 80.27039063 -81.763125 79.54078125 -82.15625 78.7890625 C-83.05515832 77.16460675 -84.01916481 75.57634227 -85 74 C-80.38 74 -75.76 74 -71 74 C-71 73.34 -71 72.68 -71 72 C-71.59296875 71.75507813 -72.1859375 71.51015625 -72.796875 71.2578125 C-75.36698726 69.79047891 -76.54529966 68.27707775 -78.25 65.875 C-78.77078125 65.15054688 -79.2915625 64.42609375 -79.828125 63.6796875 C-80.21484375 63.12539063 -80.6015625 62.57109375 -81 62 C-78.02423085 60.0161539 -75.7746864 59.25145801 -72.375 58.25 C-54.83205105 52.45154932 -44.35383561 36.26965956 -33.76171875 21.98046875 C-26.52856161 12.52579351 -12.77145367 0 0 0 Z " fill="#F9CD43" transform="translate(500,251)"/>
<path d="M0 0 C6.35649958 4.5153066 9.86856818 9.56777476 11.3125 17.3125 C12.82870627 26.47565961 9.20525303 33.813244 4.3125 41.3125 C1.06761807 44.87975619 -2.34597107 48.14173554 -6.6875 50.3125 C0.37251077 54.06446755 0.37251077 54.06446755 8.125 55.4375 C15.73682569 52.75097329 18.67633269 47.46839375 22.125 40.625 C26.92608769 31.54581495 33.34732909 20.44536871 43.41796875 16.484375 C54.26377795 14.28672511 62.43285451 14.85490547 72.3125 20.3125 C81.18899959 26.30832425 85.73927698 37.93353306 88.25 48 C91.37040676 65.24945352 90.41171595 83.49557519 80.3125 98.3125 C76.12605104 103.58978425 71.49964863 106.7527189 65.3125 109.3125 C64.52359375 109.66699219 63.7346875 110.02148438 62.921875 110.38671875 C57.14216001 112.43730625 51.06022055 112.28060879 45.296875 110.25 C37.23324001 106.19615071 32.37503234 100.73064261 28.90576172 92.4152832 C27.70306213 88.15238134 28.00793938 83.76627402 28.125 79.375 C28.14530273 77.9199707 28.14530273 77.9199707 28.16601562 76.43554688 C28.20111323 74.06060871 28.25027725 71.68685622 28.3125 69.3125 C31.29279117 70.80264558 31.33977144 73.19761461 32.3984375 76.17578125 C34.04931228 80.03487742 36.51340821 83.17084438 40.09765625 85.4453125 C45.96037147 87.74076713 52.78329729 87.20533543 58.62109375 85.14453125 C67.52934989 80.81829949 73.51090623 76.63127856 77.3125 67.3125 C80.0082881 59.2251357 79.61055041 47.37087791 76.625 39.4375 C74.72344541 35.6608013 72.88886978 32.69674652 69.3125 30.3125 C64.37650162 29.17778773 60.41320469 29.90438649 56.0625 32.4375 C50.48111983 36.41630566 47.59235021 40.46707426 44.9375 46.6875 C42.108817 53.15557888 38.48055137 59.22695719 31.8125 62.25 C25.60812405 64.17040208 18.76641437 64.0687975 12.3125 64.3125 C12.57804687 64.88097656 12.84359375 65.44945312 13.1171875 66.03515625 C13.47039062 66.80730469 13.82359375 67.57945312 14.1875 68.375 C14.53554687 69.12910156 14.88359375 69.88320313 15.2421875 70.66015625 C19.21214454 80.49811549 20.46790951 92.73090115 16.6875 102.875 C15.55859375 105.1796875 15.55859375 105.1796875 14.3125 107.3125 C13.91160156 108.01632812 13.51070313 108.72015625 13.09765625 109.4453125 C8.42014154 116.57682768 0.41809117 121.79656248 -7.6875 124.3125 C-17.67222266 125.1905022 -26.56233204 124.80853089 -35.6875 120.3125 C-36.45191406 119.961875 -37.21632812 119.61125 -38.00390625 119.25 C-53.05928603 111.70921847 -61.19056692 98.72781232 -66.6875 83.3125 C-69.41980383 73.54126107 -68.88852481 63.36374046 -68.6875 53.3125 C-67.26503832 56.00247934 -66.22383674 58.58362346 -65.390625 61.5078125 C-62.75942555 70.45679702 -60.27012023 78.69422819 -54.6875 86.3125 C-53.965625 87.364375 -53.24375 88.41625 -52.5 89.5 C-44.31188865 97.68811135 -36.69878118 100.49310399 -25.5 100.5625 C-24.68724609 100.583125 -23.87449219 100.60375 -23.03710938 100.625 C-15.95124838 100.67009697 -9.56086277 99.54733771 -3.875 95.125 C1.2019311 88.59751716 3.00652295 83.48633356 2.69921875 75.09375 C2.16579013 71.25737447 1.00737316 69.08020757 -1.6875 66.3125 C-5.73967508 64.22545053 -9.16826077 64.07143143 -13.6875 64.125 C-15.481875 64.13466797 -15.481875 64.13466797 -17.3125 64.14453125 C-20.23725529 64.29009199 -22.83611928 64.70274975 -25.6875 65.3125 C-27.0256816 61.35578884 -28.357222 57.39687472 -29.6875 53.4375 C-30.0690625 52.30957031 -30.450625 51.18164062 -30.84375 50.01953125 C-31.2046875 48.94316406 -31.565625 47.86679688 -31.9375 46.7578125 C-32.27265625 45.76281738 -32.6078125 44.76782227 -32.953125 43.74267578 C-33.6875 41.3125 -33.6875 41.3125 -33.6875 39.3125 C-33.09324219 39.32821045 -32.49898437 39.3439209 -31.88671875 39.36010742 C-29.15374546 39.42306569 -26.42092545 39.46168095 -23.6875 39.5 C-22.75292969 39.52513672 -21.81835938 39.55027344 -20.85546875 39.57617188 C-14.73923998 39.64032812 -10.21121223 39.01837255 -4.6875 36.3125 C-2.17946567 33.44993379 -0.92453129 30.41864604 -0.125 26.6875 C-0.96335107 23.14779548 -2.94960457 21.60469152 -5.6875 19.3125 C-12.26459548 17.12013484 -20.80606976 17.49609476 -27.4375 19.375 C-29.45717829 20.57903898 -31.45197407 21.82728254 -33.40234375 23.140625 C-34.38332031 23.79546875 -35.36429688 24.4503125 -36.375 25.125 C-37.28636719 25.77082031 -38.19773438 26.41664063 -39.13671875 27.08203125 C-41.6875 28.3125 -41.6875 28.3125 -43.69726562 27.61376953 C-45.91553955 26.16340152 -46.78557398 25.01443768 -48.08203125 22.72265625 C-48.47970703 22.02076172 -48.87738281 21.31886719 -49.28710938 20.59570312 C-49.68736328 19.86287109 -50.08761719 19.13003906 -50.5 18.375 C-50.91958984 17.64603516 -51.33917969 16.91707031 -51.77148438 16.16601562 C-54.03665008 12.09468813 -54.03665008 12.09468813 -54.6875 10.3125 C-53.01448163 5.29344488 -48.20120707 3.68780717 -43.6875 1.3125 C-40.40483435 -0.18800841 -37.08713888 -1.47873951 -33.6875 -2.6875 C-32.615 -3.1 -31.5425 -3.5125 -30.4375 -3.9375 C-19.94983751 -6.0350325 -9.21824287 -5.66695258 0 0 Z " fill="#040301" transform="translate(239.6875,206.6875)"/>
<path d="M0 0 C2.84526305 1.28015514 3.86789359 3.44163362 5.47924805 6.05615234 C6.08124023 7.01005859 6.68323242 7.96396484 7.3034668 8.94677734 C12.91813305 19.73401014 9.75999682 35.04773563 8.29174805 46.61865234 C6.5477572 60.43495768 5.84846816 73.9837906 7.79174805 87.80615234 C7.16010742 87.66177734 6.5284668 87.51740234 5.87768555 87.36865234 C-8.9646725 84.28896998 -23.61619403 86.2655628 -38.48510742 88.0847168 C-61.66388191 90.82911166 -61.66388191 90.82911166 -71.20825195 84.80615234 C-71.97137695 84.35111328 -72.73450195 83.89607422 -73.52075195 83.42724609 C-75.44324931 82.25572427 -77.33370062 81.05244805 -79.20825195 79.80615234 C-78.62919484 75.33314596 -76.79312088 71.93281756 -74.52075195 68.11865234 C-74.16279541 67.5028833 -73.80483887 66.88711426 -73.43603516 66.25268555 C-71.31912588 62.62538392 -69.11865585 59.05700081 -66.89575195 55.49365234 C-61.22247305 45.94028351 -60.81858283 37.76018444 -61.20825195 26.80615234 C-59.58258589 27.28305438 -57.95773885 27.762749 -56.33325195 28.24365234 C-55.42833008 28.51048828 -54.5234082 28.77732422 -53.59106445 29.05224609 C-51.20825195 29.80615234 -51.20825195 29.80615234 -49.20825195 30.80615234 C-49.49700195 30.03529297 -49.78575195 29.26443359 -50.08325195 28.47021484 C-50.45450195 27.46732422 -50.82575195 26.46443359 -51.20825195 25.43115234 C-51.57950195 24.43341797 -51.95075195 23.43568359 -52.33325195 22.40771484 C-53.20825195 19.80615234 -53.20825195 19.80615234 -53.20825195 17.80615234 C-52.2646582 17.86416016 -51.32106445 17.92216797 -50.34887695 17.98193359 C-48.42301758 18.04960937 -48.42301758 18.04960937 -46.45825195 18.11865234 C-45.2052832 18.17666016 -43.95231445 18.23466797 -42.66137695 18.29443359 C-31.22733333 17.73758082 -20.14644033 9.62133348 -10.50512695 4.09521484 C-8.98145508 3.24443359 -8.98145508 3.24443359 -7.42700195 2.37646484 C-6.06478516 1.59940186 -6.06478516 1.59940186 -4.67504883 0.80664062 C-2.20825195 -0.19384766 -2.20825195 -0.19384766 0 0 Z " fill="#F7CC43" transform="translate(407.208251953125,327.19384765625)"/>
<path d="M0 0 C4.27888592 1.29939319 7.94359235 2.94613898 11.80859375 5.1875 C12.88560547 5.80367188 13.96261719 6.41984375 15.07226562 7.0546875 C17.31282796 8.34987037 19.55241514 9.64674169 21.79101562 10.9453125 C29.95352263 15.60960222 35.96347232 18.08362699 45.4375 18.625 C47.29181641 18.73714844 47.29181641 18.73714844 49.18359375 18.8515625 C50.11300781 18.90054687 51.04242188 18.94953125 52 19 C51.28159908 22.79911118 50.27444595 26.34658827 49 30 C49.68707031 29.71125 50.37414062 29.4225 51.08203125 29.125 C51.98308594 28.75375 52.88414062 28.3825 53.8125 28 C55.15248047 27.443125 55.15248047 27.443125 56.51953125 26.875 C59 26 59 26 62 26 C61.94199219 27.01578125 61.88398438 28.0315625 61.82421875 29.078125 C61.33561267 41.12550256 64.2076352 49.01392572 70.0390625 59.45703125 C70.85745605 60.93018799 70.85745605 60.93018799 71.69238281 62.43310547 C72.8020906 64.41454251 73.92875551 66.38659046 75.07324219 68.34814453 C75.59305664 69.26321777 76.11287109 70.17829102 76.6484375 71.12109375 C77.36265869 72.34977173 77.36265869 72.34977173 78.09130859 73.60327148 C79.20213467 76.53314241 78.97878088 78.05366344 78 81 C76.109375 82.73046875 76.109375 82.73046875 73.75 84.1875 C72.59757812 84.92033203 72.59757812 84.92033203 71.421875 85.66796875 C65.46489025 88.94431036 60.77953298 89.35005155 54.0625 89.3125 C53.09248047 89.31121094 52.12246094 89.30992187 51.12304688 89.30859375 C43.37977983 89.20861613 35.92798973 88.27006775 28.28930664 87.07641602 C16.53792302 85.33301529 3.71223747 84.61131999 -8 87 C-7.83886719 86.09636719 -7.67773438 85.19273437 -7.51171875 84.26171875 C-6.73801134 78.79920751 -6.80928326 73.31955182 -6.8125 67.8125 C-6.81185547 66.66136719 -6.81121094 65.51023437 -6.81054688 64.32421875 C-6.85323583 57.32322936 -7.20252523 50.45378562 -8 43.5 C-9.87777505 26.68468533 -10.9201438 14.10108658 0 0 Z " fill="#F8CC43" transform="translate(94,328)"/>
<path d="M0 0 C1.175625 1.11375 1.175625 1.11375 2.375 2.25 C1.79803006 5.86003576 0.8458162 8.58621133 -0.953125 11.76171875 C-1.65888672 13.02338867 -1.65888672 13.02338867 -2.37890625 14.31054688 C-2.87261719 15.17744141 -3.36632812 16.04433594 -3.875 16.9375 C-12.70946189 31.57788961 -12.70946189 31.57788961 -15.6875 48 C-15.67847656 49.17046875 -15.66945313 50.3409375 -15.66015625 51.546875 C-15.64855469 52.43890625 -15.63695312 53.3309375 -15.625 54.25 C-20.18333544 53.592425 -23.57019187 52.47049017 -27.625 50.25 C-27.33625 50.84167969 -27.0475 51.43335938 -26.75 52.04296875 C-26.37875 52.83316406 -26.0075 53.62335938 -25.625 54.4375 C-25.25375 55.21480469 -24.8825 55.99210937 -24.5 56.79296875 C-23.55775421 59.43882858 -23.4666204 61.46350885 -23.625 64.25 C-24.594375 64.1571875 -25.56375 64.064375 -26.5625 63.96875 C-37.32536801 63.26198743 -44.24270306 65.73331404 -53.47753906 71.03857422 C-57.3768061 73.23822895 -61.37800939 75.2353585 -65.375 77.25 C-66.13796387 77.64759521 -66.90092773 78.04519043 -67.68701172 78.45483398 C-68.4038916 78.82036377 -69.12077148 79.18589355 -69.859375 79.5625 C-70.49069336 79.88863281 -71.12201172 80.21476562 -71.77246094 80.55078125 C-73.625 81.25 -73.625 81.25 -77.625 81.25 C-85.06784273 73.55239004 -87.07172968 63.91087979 -87.06005859 53.59130859 C-86.84292914 45.82934496 -85.39789904 38.28246012 -84.05957031 30.65063477 C-81.9926197 18.39750484 -81.92466732 6.53939633 -83.625 -5.75 C-81.97951172 -5.50830078 -81.97951172 -5.50830078 -80.30078125 -5.26171875 C-75.13622554 -4.62110975 -70.0116081 -4.55899567 -64.8125 -4.5625 C-63.80276123 -4.56185547 -62.79302246 -4.56121094 -61.75268555 -4.56054688 C-55.41738048 -4.60439326 -49.22388454 -4.98383856 -42.9375 -5.75 C-11.77716935 -9.48116156 -11.77716935 -9.48116156 0 0 Z " fill="#F8CC43" transform="translate(169.625,91.75)"/>
<path d="M0 0 C2.01980656 6.27429272 3.91970868 12.49721403 5.35546875 18.92822266 C7.89159137 30.07794976 11.34130273 41.74382374 21.49609375 48.1796875 C21.99238281 48.45039063 22.48867187 48.72109375 23 49 C20.93100225 51.27271445 19.16580795 52.55694402 16.3125 53.6875 C15.219375 54.120625 14.12625 54.55375 13 55 C16.3 56.98 19.6 58.96 23 61 C21.90276389 64.29170834 21.483401 64.54487479 18.8125 66.4375 C9.77833312 74.11010201 7.43494639 86.59549135 4.44726562 97.54638672 C3.03907318 102.67870403 1.6364253 107.36435189 -1 112 C-10.00634419 112.78316036 -17.72161914 109.02017877 -24.58984375 103.36328125 C-29.97325021 98.08457637 -34.44808929 91.99294502 -39 86 C-51.68521376 69.17658746 -51.68521376 69.17658746 -68 56 C-65.57338315 53.48767483 -63.1739784 51.31013587 -60.3125 49.3125 C-51.09646496 42.45998686 -44.26854326 33.7402664 -37.32568359 24.71923828 C-28.78083638 13.63768873 -21.19029209 4.05189784 -7.25 0.25 C-4.81671989 -0.02036446 -2.44645691 -0.0162017 0 0 Z " fill="#F8CC43" transform="translate(86,195)"/>
<path d="M0 0 C3.82042372 1.27347457 4.0642565 2.48703722 6 5.9375 C12.31090007 16.14824646 22.09108992 22.93329425 31.4296875 30.20703125 C53.60929265 47.52460473 53.60929265 47.52460473 56 59 C56.04215203 60.56198559 56.05321549 62.12500984 56.0390625 63.6875 C56.03342285 64.49574219 56.0277832 65.30398437 56.02197266 66.13671875 C56.01109619 67.05904297 56.01109619 67.05904297 56 68 C55.11328613 68.24645264 54.22657227 68.49290527 53.31298828 68.74682617 C49.97451383 69.67998749 46.6388866 70.62228092 43.3046875 71.57055664 C41.87047952 71.9764979 40.43527586 72.37894043 38.99902344 72.77758789 C23.31012118 76.62966026 23.31012118 76.62966026 11 86.3125 C10.03409725 87.56863796 9.04239561 88.80657548 8 90 C7.34 90 6.68 90 6 90 C4.35 87.03 2.7 84.06 1 81 C0.66226563 81.71027344 0.32453125 82.42054687 -0.0234375 83.15234375 C-0.46945313 84.07144531 -0.91546875 84.99054688 -1.375 85.9375 C-1.81585938 86.85402344 -2.25671875 87.77054687 -2.7109375 88.71484375 C-4 91 -4 91 -6 92 C-6.2475 91.5153125 -6.495 91.030625 -6.75 90.53125 C-12.56111534 81.08818757 -23.92529999 76.8512984 -34.27978516 74.2265625 C-36.27299147 73.75926263 -38.26999856 73.31434801 -40.26953125 72.875 C-45.35424338 71.68235548 -50.15469717 69.92990875 -55 68 C-55.48717334 59.06848872 -53.50789241 52.05048689 -47.84765625 45.02734375 C-41.64316586 38.21945683 -34.4209871 32.71269926 -27.03125 27.265625 C-19.01707381 21.27564795 -11.3762093 15.0218397 -4.8125 7.4375 C-4.32394531 6.87933594 -3.83539063 6.32117188 -3.33203125 5.74609375 C-1.93726723 3.91776673 -0.96209291 2.08377469 0 0 Z " fill="#F8CC43" transform="translate(249,18)"/>
<path d="M0 0 C13.21888855 1.85749945 25.88111045 2.71076851 39.01391602 -0.29101562 C38.86954102 0.29421875 38.72516602 0.87945312 38.57641602 1.48242188 C35.65286463 15.00384704 36.83412762 28.29926511 38.51391602 41.89648438 C42.23593196 72.36268548 42.23593196 72.36268548 33.72241211 83.38037109 C32.50922454 84.84261516 31.26403007 86.27818157 30.01391602 87.70898438 C22.0616161 83.82578338 14.20164303 79.89384665 6.57641602 75.39648438 C-3.02940795 69.87177884 -9.87254934 68.20125944 -20.98608398 68.70898438 C-20.484092 64.97990107 -19.94401375 61.34750752 -18.98608398 57.70898438 C-19.51717773 57.92554688 -20.04827148 58.14210937 -20.59545898 58.36523438 C-21.30186523 58.64367187 -22.00827148 58.92210937 -22.73608398 59.20898438 C-23.43217773 59.48742187 -24.12827148 59.76585937 -24.84545898 60.05273438 C-26.98608398 60.70898438 -26.98608398 60.70898438 -30.98608398 60.70898438 C-30.93967773 59.7421875 -30.89327148 58.77539062 -30.84545898 57.77929688 C-30.80936523 56.47734375 -30.77327148 55.17539063 -30.73608398 53.83398438 C-30.68967773 52.5578125 -30.64327148 51.28164062 -30.59545898 49.96679688 C-30.97285815 40.71724514 -36.68400646 32.30062047 -41.11108398 24.45898438 C-47.52886218 13.0701214 -47.52886218 13.0701214 -48.98608398 7.70898438 C-33.71970054 -5.08407438 -18.63887271 -2.6477817 0 0 Z " fill="#F8CC43" transform="translate(375.986083984375,85.291015625)"/>
<path d="M0 0 C0.66 0 1.32 0 2 0 C2.78604639 1.16395331 3.52772028 2.35793856 4.25 3.5625 C13.35787926 15.75634306 32.70399137 18.44216944 46.51660156 22.26318359 C49 23 49 23 51 24 C50.39049225 34.25654427 48.19582657 43.11933569 40.50732422 50.41674805 C38.8914815 51.7441374 37.24274475 53.00521631 35.5625 54.25 C34.31890437 55.20038209 33.07541797 56.15090711 31.83203125 57.1015625 C31.19861816 57.58012695 30.56520508 58.05869141 29.91259766 58.55175781 C10.01055749 72.96404174 10.01055749 72.96404174 -5 92 C-7.64547592 89.55677759 -9.53692048 86.84359462 -11.5625 83.875 C-17.38841356 75.78701012 -24.77135867 69.82231312 -32.64453125 63.81640625 C-36.30301149 60.99519015 -39.8683524 58.06434613 -43.42578125 55.1171875 C-44.94451432 53.86809293 -46.47813342 52.63614321 -48.04296875 51.4453125 C-55.29449546 45.77855652 -59.47416306 38.00243792 -61 29 C-61.125 26 -61.125 26 -61 24 C-55.62199746 21.8373157 -50.30909249 20.26292576 -44.67578125 18.90869141 C-31.23268035 15.66433519 -20.54300157 12.48785876 -12 1 C-8.7156107 3.98999026 -7.61916695 6.91353103 -6 11 C-4.02 7.37 -2.04 3.74 0 0 Z " fill="#F8CC43" transform="translate(256,391)"/>
<path d="M0 0 C8.74657202 -0.66011864 16.51593927 1.58698252 23.375 7.1875 C29.48428011 13.04586325 34.35755986 20.06404357 39.39208984 26.83691406 C47.69715772 38.00953802 55.88269061 48.66583905 68 56 C65.09781544 58.35802496 62.15033771 60.6170701 59.125 62.8125 C52.05197818 68.14690193 46.74682806 74.47547956 41.33544922 81.44750977 C20.78292562 107.91369816 20.78292562 107.91369816 7 111 C4.66742091 111.05932297 2.33222002 111.07207108 0 111 C-0.73121045 108.68813038 -1.45990522 106.37550802 -2.1875 104.0625 C-2.41381104 103.34755371 -2.64012207 102.63260742 -2.87329102 101.89599609 C-4.06116818 98.11470371 -5.1993247 94.33007519 -6.234375 90.50390625 C-9.39005551 78.91682233 -12.47449213 69.73632503 -23 63 C-23 62.34 -23 61.68 -23 61 C-18.05 58.525 -18.05 58.525 -13 56 C-14.629375 55.21625 -16.25875 54.4325 -17.9375 53.625 C-22.875 51.25 -22.875 51.25 -24 49 C-23.48050781 48.5875 -22.96101563 48.175 -22.42578125 47.75 C-21.72839844 47.1725 -21.03101563 46.595 -20.3125 46 C-19.62800781 45.443125 -18.94351562 44.88625 -18.23828125 44.3125 C-12.77782843 38.67098505 -10.09586369 32.25447709 -7.9375 24.8125 C-7.56298706 23.57608765 -7.56298706 23.57608765 -7.1809082 22.31469727 C-6.68017809 20.65885736 -6.18421982 19.00156591 -5.69335938 17.34277344 C-4.71407748 14.03390405 -3.7012809 10.73596105 -2.6875 7.4375 C-2.38199219 6.42558594 -2.07648438 5.41367188 -1.76171875 4.37109375 C-1 2 -1 2 0 0 Z " fill="#F8CC43" transform="translate(415,194)"/>
<path d="M0 0 C0.21011719 0.94875 0.42023438 1.8975 0.63671875 2.875 C3.30375067 13.69475591 7.82970938 22.883389 13.3659668 32.53515625 C21.5271702 46.84495051 21.5271702 46.84495051 21.25 55.3125 C21.23453125 56.11300781 21.2190625 56.91351563 21.203125 57.73828125 C21.00705959 59.92139419 20.59742844 61.89454655 20 64 C17.30714827 64.10357122 14.69052216 64.08253135 12 64 C11.03578125 64.01546875 10.0715625 64.0309375 9.078125 64.046875 C5.59726427 63.85251222 3.17781397 63.46733961 0 62 C-3.55654181 57.67524515 -5.75043812 53.10390547 -8 48 C-8.36867188 47.25878906 -8.73734375 46.51757812 -9.1171875 45.75390625 C-11.77230065 39.87472714 -11.71915002 33.3530203 -12 27 C-12.81791016 27.79664063 -12.81791016 27.79664063 -13.65234375 28.609375 C-18.79364532 33.42550023 -23.3533073 36.69212059 -30 39 C-31.0828125 39.38285156 -32.165625 39.76570313 -33.28125 40.16015625 C-43.69336444 43.61913571 -43.69336444 43.61913571 -48 42 C-50.42290348 40.3107408 -52.61122587 38.40318626 -54.8125 36.4375 C-55.40998047 35.91736328 -56.00746094 35.39722656 -56.62304688 34.86132812 C-58.08942387 33.58264738 -59.54573706 32.29244159 -61 31 C-58.76239154 24.77731741 -55.33104659 20.87173094 -49.5390625 17.6171875 C-42.57491338 14.51550764 -35.30868701 12.67521761 -27.94506836 10.80419922 C-19.16653448 8.56889589 -11.07933599 6.14415707 -3.55859375 0.953125 C-2 0 -2 0 0 0 Z " fill="#F6CB43" transform="translate(320,83)"/>
<path d="M0 0 C5.53323569 2.33647231 9.34043802 8.88037783 12.2109375 13.93359375 C12.76670159 17.78956525 11.70277815 20.39580022 10.2109375 23.93359375 C9.89125 24.97515625 9.5715625 26.01671875 9.2421875 27.08984375 C6.5354771 35.36464412 2.44217233 40.91956972 -3.7890625 46.93359375 C-3.06203125 46.94777344 -2.335 46.96195312 -1.5859375 46.9765625 C6.5941849 47.36459395 12.90613934 49.30463754 20.2109375 52.93359375 C21.32855469 53.46339844 22.44617188 53.99320312 23.59765625 54.5390625 C31.82452135 58.79366611 31.82452135 58.79366611 33.4609375 63.62109375 C33.42402877 65.06053407 33.33349878 66.49890583 33.2109375 67.93359375 C33.224263 70.1003196 33.24543228 72.26700792 33.2734375 74.43359375 C33.25755423 76.26697665 33.23843618 78.10034828 33.2109375 79.93359375 C30.46783017 81.30514742 28.21218725 81.14059375 25.1484375 81.18359375 C24.06433594 81.209375 22.98023438 81.23515625 21.86328125 81.26171875 C11.74691228 80.35286849 3.98857311 75.02998479 -4.44140625 69.75976562 C-12.79624362 64.65403168 -21.35877039 61.44833831 -30.7890625 58.93359375 C-30.19158203 57.86431641 -30.19158203 57.86431641 -29.58203125 56.7734375 C-29.05222656 55.81566406 -28.52242188 54.85789062 -27.9765625 53.87109375 C-27.45449219 52.93136719 -26.93242188 51.99164063 -26.39453125 51.0234375 C-23.50228372 45.4570925 -21.42214166 40.01929371 -19.9140625 33.93359375 C-19.21517207 31.26440215 -18.50155639 28.59918179 -17.7890625 25.93359375 C-17.61681152 25.27665527 -17.44456055 24.6197168 -17.26708984 23.94287109 C-14.72486231 14.48991608 -11.24217023 7.52278526 -3.7890625 0.93359375 C-1.7890625 -0.06640625 -1.7890625 -0.06640625 0 0 Z " fill="#F6CB43" transform="translate(113.7890625,261.06640625)"/>
<path d="M0 0 C9.84532649 5.01918605 13.54859365 11.66863796 17 22 C17.90118487 25.47378338 18.64788811 28.98076377 19.41040039 32.48706055 C21.70664639 42.66689455 25.69861376 52.01963452 31 61 C30.26386475 61.10997314 29.52772949 61.21994629 28.76928711 61.33325195 C21.65864691 62.65840927 15.89378949 64.79934971 9.56640625 68.23046875 C8.8341684 68.62694611 8.10193054 69.02342346 7.34750366 69.43191528 C4.31729753 71.09024134 1.29966026 72.76902163 -1.7043457 74.47436523 C-11.64649032 80.08112866 -19.27605533 83.8092708 -31 82 C-31.66 81.67 -32.32 81.34 -33 81 C-33.09916292 77.97553098 -33.08731723 75.02117601 -33 72 C-33.01546875 71.08734375 -33.0309375 70.1746875 -33.046875 69.234375 C-32.84856776 66.00737533 -32.46465689 63.89942283 -31 61 C-26.66093973 57.49292998 -22.08722837 55.248102 -17 53 C-16.17371094 52.63003906 -15.34742188 52.26007813 -14.49609375 51.87890625 C-8.54530581 49.58845564 -2.31917951 49.31007818 4 49 C3.48050781 48.56171875 2.96101563 48.1234375 2.42578125 47.671875 C-3.62134252 42.17245745 -6.39208715 36.67556169 -9 29 C-9.47953125 27.60587891 -9.47953125 27.60587891 -9.96875 26.18359375 C-12.61993894 17.9477244 -12.61993894 17.9477244 -12 14 C-10.42550128 11.53364972 -8.52458037 9.41388046 -6.5625 7.25 C-6.04623047 6.66089844 -5.52996094 6.07179688 -4.99804688 5.46484375 C-1.59709821 1.59709821 -1.59709821 1.59709821 0 0 Z " fill="#F7CB43" transform="translate(387,259)"/>
<path d="M0 0 C0.66644531 0.45890625 1.33289063 0.9178125 2.01953125 1.390625 C11.08284537 7.42438377 20.14969227 10.48149122 30.5 13.5 C33.33466877 14.32886874 36.16799428 15.16207882 39 16 C40.07378906 16.31710938 41.14757812 16.63421875 42.25390625 16.9609375 C49.88600076 19.44481805 55.51074122 23.26611184 60 30 C59.9861806 33.27519876 58.74241511 34.26703755 56.4453125 36.6484375 C48.1279024 43.74965854 48.1279024 43.74965854 43.078125 44.34375 C40.21164013 43.8466717 37.71529785 43.03948084 35 42 C34.08347656 41.75378906 33.16695312 41.50757813 32.22265625 41.25390625 C25.45772413 39.27091773 21.10514358 35.92093577 16.09375 31.0234375 C13.97167037 28.85158748 13.97167037 28.85158748 11 27 C11.0928125 27.8971875 11.185625 28.794375 11.28125 29.71875 C11.93121297 40.95382412 8.79377909 48.49225996 3 58 C2.32453125 59.12535156 1.6490625 60.25070313 0.953125 61.41015625 C-1 64 -1 64 -4.5 64.875 C-5.99832032 64.95729411 -7.49943875 64.99278576 -9 65 C-10.051875 65.01417969 -11.10375 65.02835937 -12.1875 65.04296875 C-15.12632562 65.06029673 -18.06153783 65.04407693 -21 65 C-23.37300745 57.88097764 -22.93681796 51.24763743 -19.69360352 44.45336914 C-17.87514145 40.9227904 -15.95236023 37.45796283 -14 34 C-12.52962053 31.34918923 -11.06421439 28.69569411 -9.60083008 26.04101562 C-8.6360808 24.29824273 -7.66356603 22.55974012 -6.68237305 20.82617188 C-3.55900931 15.25909372 -1.04052394 10.05839809 -0.375 3.625 C-0.25125 2.42875 -0.1275 1.2325 0 0 Z " fill="#F6CB43" transform="translate(180,82)"/>
<path d="M0 0 C-0.14362477 1.83350768 -0.29002705 3.66679783 -0.4375 5.5 C-0.51871094 6.5209375 -0.59992188 7.541875 -0.68359375 8.59375 C-0.78800781 9.7178125 -0.89242187 10.841875 -1 12 C-1.00713013 13.00969849 -1.00713013 13.00969849 -1.0144043 14.03979492 C-1.1015625 16.13671875 -1.1015625 16.13671875 -2 20 C-4.44303842 21.95758305 -6.16740903 23.05892608 -8.9375 24.3125 C-9.61901123 24.64443359 -10.30052246 24.97636719 -11.00268555 25.31835938 C-19.73894739 29.46934741 -27.26749743 31.55910121 -37 31 C-36.39671875 31.67804688 -35.7934375 32.35609375 -35.171875 33.0546875 C-29.99063844 39.08832105 -26.31561034 44.3899037 -24 52 C-23.69191406 52.96679688 -23.38382813 53.93359375 -23.06640625 54.9296875 C-20.53406852 63.4158326 -20.53406852 63.4158326 -22 67 C-23.7421875 69.47265625 -23.7421875 69.47265625 -25.875 72.0625 C-26.92300781 73.34833984 -26.92300781 73.34833984 -27.9921875 74.66015625 C-28.65476563 75.43230469 -29.31734375 76.20445312 -30 77 C-30.49757812 77.61746094 -30.99515625 78.23492187 -31.5078125 78.87109375 C-33 80 -33 80 -34.97265625 79.83984375 C-41.48287496 77.14293234 -44.83890066 72.07714995 -47.79760742 65.9362793 C-50.39875604 59.58419514 -51.70328454 52.83741925 -53.22851562 46.1640625 C-55.17063428 38.12140643 -58.04596215 31.25453881 -62 24 C-62.67244126 22.66956963 -63.34151553 21.33739315 -64 20 C-63.40316406 19.87625 -62.80632812 19.7525 -62.19140625 19.625 C-48.8214784 16.44641388 -36.68489202 9.64196184 -24.953125 2.6640625 C-16.34373041 -2.18726302 -9.42290139 -2.29410678 0 0 Z " fill="#F6CB43" transform="translate(147,161)"/>
<path d="M0 0 C1.03253906 0.01353516 1.03253906 0.01353516 2.0859375 0.02734375 C3.76577838 0.05067487 5.44543746 0.08653674 7.125 0.125 C9.71846557 5.31193114 9.26677132 12.64086751 7.48046875 18.09179688 C5.42224865 22.97397299 2.78365996 27.55036505 0.125 32.125 C-1.46216879 34.8936487 -3.04432797 37.66513784 -4.625 40.4375 C-5.1972229 41.43463013 -5.1972229 41.43463013 -5.78100586 42.4519043 C-9.67989036 49.34636738 -12.43332412 56.32054308 -13.875 64.125 C-14.56722656 63.67769531 -15.25945312 63.23039062 -15.97265625 62.76953125 C-25.30491494 57.0029577 -34.92430463 53.64026222 -45.515625 50.91796875 C-56.5413169 48.07046891 -66.32201582 45.17290908 -72.875 35.125 C-72.80117677 31.95060092 -71.66102339 30.88916746 -69.50390625 28.51171875 C-61.95568724 21.61345402 -61.95568724 21.61345402 -57.3125 20.5234375 C-54.62270271 20.70924587 -52.4337008 21.26830906 -49.875 22.125 C-48.80894531 22.45757812 -47.74289062 22.79015625 -46.64453125 23.1328125 C-38.1369509 26.08941695 -31.15032903 29.69158183 -25.875 37.125 C-25.83246094 35.72314453 -25.83246094 35.72314453 -25.7890625 34.29296875 C-25.15094847 25.50596607 -23.20071869 18.59594612 -19.125 10.75 C-18.70686035 9.92395264 -18.2887207 9.09790527 -17.85791016 8.24682617 C-15.9045769 4.68633413 -14.66375299 2.55088316 -11.0390625 0.59375 C-7.33459579 0.04494012 -3.73355443 -0.09406242 0 0 Z " fill="#F7CB43" transform="translate(333.875,353.875)"/>
<path d="M0 0 C5.60379113 2.86084836 10.9088398 6.28390691 16.26611328 9.57446289 C24.34875834 14.48809064 32.07055777 18.05010861 41.5703125 18.89453125 C40.50180365 21.08832961 39.38413813 23.21582386 38.16015625 25.328125 C32.89747825 34.89549943 29.88178672 45.03145466 26.94311523 55.49975586 C24.49220999 63.93876409 21.76893595 72.30302144 14.1953125 77.45703125 C13.3290625 77.93140625 12.4628125 78.40578125 11.5703125 78.89453125 C5.40767502 76.52864514 1.73934757 70.40619354 -1.4296875 64.89453125 C-2.14360145 61.50901745 -1.50613021 59.14008715 -0.4296875 55.89453125 C-0.18347656 54.93546875 0.06273437 53.97640625 0.31640625 52.98828125 C2.37518279 45.74138783 5.50043624 40.43492967 10.5703125 34.89453125 C11.09496094 34.31832031 11.61960937 33.74210937 12.16015625 33.1484375 C13.5703125 31.89453125 13.5703125 31.89453125 15.5703125 31.89453125 C15.5703125 31.23453125 15.5703125 30.57453125 15.5703125 29.89453125 C14.21099609 29.94673828 14.21099609 29.94673828 12.82421875 30 C5.41637612 30.16461873 -0.71198561 30.11343007 -7.4296875 26.89453125 C-7.99816406 26.6310791 -8.56664062 26.36762695 -9.15234375 26.09619141 C-11.10106593 25.17334941 -13.01567385 24.19969694 -14.9296875 23.20703125 C-15.86651367 22.75360352 -15.86651367 22.75360352 -16.82226562 22.29101562 C-18.5859375 21.3203125 -18.5859375 21.3203125 -21.4296875 18.89453125 C-22.12798727 15.92902443 -22.43178004 13.85303251 -22.4296875 10.89453125 C-22.46191406 9.69828125 -22.49414062 8.50203125 -22.52734375 7.26953125 C-22.51574219 6.15578125 -22.50414062 5.04203125 -22.4921875 3.89453125 C-22.48316406 2.76015625 -22.47414063 1.62578125 -22.46484375 0.45703125 C-22.45324219 -0.38859375 -22.44164062 -1.23421875 -22.4296875 -2.10546875 C-14.63589103 -4.70340091 -7.32804801 -3.31962488 0 0 Z " fill="#F6CB43" transform="translate(376.4296875,161.10546875)"/>
<path d="M0 0 C2.41445332 0.0387027 4.78132907 0.14600666 7.1875 0.3125 C8.50105469 0.39113281 9.81460938 0.46976562 11.16796875 0.55078125 C17.80036177 1.3282789 17.80036177 1.3282789 21 3 C22.83590894 5.47243715 24.06191173 8.13292631 25.3125 10.9375 C25.65861328 11.66646484 26.00472656 12.39542969 26.36132812 13.14648438 C28.98681731 18.73012707 30.21001891 23.49885667 30.5625 29.6875 C30.60568359 30.38939453 30.64886719 31.09128906 30.69335938 31.81445312 C30.7991736 33.54275206 30.90006581 35.2713511 31 37 C31.56847656 36.46890625 32.13695312 35.9378125 32.72265625 35.390625 C33.49480469 34.68421875 34.26695312 33.9778125 35.0625 33.25 C35.81660156 32.55390625 36.57070312 31.8578125 37.34765625 31.140625 C42.91909755 26.64408622 48.25064221 24.31837316 55.125 22.6875 C56.15947266 22.41583008 56.15947266 22.41583008 57.21484375 22.13867188 C61.13937556 21.17442266 64.18803149 20.53719582 68 22 C70.22505493 23.6331959 72.2548717 25.24488666 74.3125 27.0625 C74.86228516 27.53494141 75.41207031 28.00738281 75.97851562 28.49414062 C77.3262696 29.654381 78.66415117 30.82607224 80 32 C79.01989218 38.25600735 75.77220876 40.58133225 70.92578125 44.4609375 C66.69370029 47.44998316 62.26773458 48.7653578 57.3125 50.125 C56.42618896 50.381604 55.53987793 50.63820801 54.62670898 50.90258789 C49.96548076 52.23698205 45.30061283 53.4049968 40.5625 54.4375 C34.7183478 55.80280051 29.84613591 58.57008043 24.71484375 61.57421875 C22 63 22 63 19 63 C18.92265625 62.08734375 18.92265625 62.08734375 18.84375 61.15625 C18.05755299 55.08109132 16.27294172 49.93798688 13.5 44.5 C13.15839844 43.8296875 12.81679687 43.159375 12.46484375 42.46875 C10.49554931 38.68544599 8.41665316 34.98612701 6.25 31.3125 C0.25496959 20.93855507 -2.86169408 13.14148311 -1 1 C-0.67 0.67 -0.34 0.34 0 0 Z " fill="#F7CB43" transform="translate(161,354)"/>
<path d="M0 0 C2 2 2 2 3.625 5.5625 C7.00582374 12.38629498 11.65716157 18.32740118 18.6875 21.5625 C28.11191133 24.6799163 37.06571594 23.82963307 46 19.70703125 C50.49093952 17.15163988 54.47764627 14.12018812 58.50390625 10.890625 C61 9 61 9 64 8 C65.44056352 9.89357091 66.8774901 11.78972722 68.3125 13.6875 C68.71662109 14.21794922 69.12074219 14.74839844 69.53710938 15.29492188 C71.90088642 18.42740691 74.04830588 21.59558857 76 25 C63.65781841 35.78936915 49.77559332 41.80445711 33.171875 41.34765625 C23.81134212 40.32168651 15.40416588 36.23186295 9.31640625 29 C2.97667762 20.14651364 0.41719305 10.78444038 0 0 Z " fill="#060501" transform="translate(239,178)"/>
<path d="M0 0 C0.66 0.33 1.32 0.66 2 1 C3.57417424 13.24357742 -2.6610209 22.16470285 -8.75 32.1875 C-11.98234445 37.58442567 -13.73094056 42.86016958 -15 49 C-15.66902344 48.62488281 -16.33804688 48.24976563 -17.02734375 47.86328125 C-23.1296764 44.61143419 -28.98272016 42.23572056 -35.625 40.375 C-54.03522633 35.20596708 -54.03522633 35.20596708 -59 29 C-59.68955269 27.67835734 -60.36086551 26.34674768 -61 25 C-59.47246094 24.77957031 -59.47246094 24.77957031 -57.9140625 24.5546875 C-36.16912091 21.20071861 -17.36173262 13.57174941 0 0 Z " fill="#F5CA42" transform="translate(320,332)"/>
<path d="M0 0 C5.66987977 2.14086342 7.9885044 4.77170903 11 10 C13.22733147 15.28991223 14.67044604 20.82172639 16.21484375 26.33984375 C16.42810303 27.09015869 16.6413623 27.84047363 16.86108398 28.61352539 C17.27676476 30.08484789 17.68181707 31.55922872 18.07446289 33.03686523 C19.38320863 37.71660607 21.20599952 41.03393999 24 45 C24 45.66 24 46.32 24 47 C23.04867187 47.13341797 23.04867187 47.13341797 22.078125 47.26953125 C11.71154518 49.25980003 3.22674873 54.5242921 -5.78686523 59.81079102 C-10.07422616 62.11456763 -13.42919847 63.25522137 -18.3125 63.125 C-19.19550781 63.10695313 -20.07851563 63.08890625 -20.98828125 63.0703125 C-21.65214844 63.04710937 -22.31601562 63.02390625 -23 63 C-23 58.56036849 -22.58396905 58.02704929 -20 54.6875 C-7.71093962 37.78692609 -3.19997681 20.40628299 0 0 Z " fill="#F5CA42" transform="translate(357,258)"/>
<path d="M0 0 C0.66 0.33 1.32 0.66 2 1 C2.3111724 2.93736789 2.60828794 4.8780299 2.83447266 6.82714844 C5.27132952 27.67353738 14.8609849 45.22647475 27 62 C24.74274225 63.12862888 23.38409535 63.19754504 20.875 63.25 C20.15054688 63.27578125 19.42609375 63.3015625 18.6796875 63.328125 C11.4248433 62.43977673 5.15914217 58.58839413 -1.0625 55 C-11.00439101 49.16897379 -11.00439101 49.16897379 -22 46 C-21.70738281 45.42894531 -21.41476563 44.85789062 -21.11328125 44.26953125 C-17.98306881 37.88829116 -15.67317278 31.17391299 -13.4375 24.4375 C-13.22174316 23.79063232 -13.00598633 23.14376465 -12.78369141 22.47729492 C-11.8835004 19.75838595 -11.01133769 17.03979644 -10.2265625 14.28515625 C-8.63030481 8.79215184 -6.19932002 4.9302828 -2 1 C-1.34 0.67 -0.68 0.34 0 0 Z " fill="#F5CA42" transform="translate(142,259)"/>
<path d="M0 0 C0.66 0 1.32 0 2 0 C2.25265625 1.16144531 2.5053125 2.32289062 2.765625 3.51953125 C3.86953227 7.92450861 5.63663598 11.68798856 7.75 15.6875 C8.46459372 17.08800536 9.17812129 18.48905519 9.890625 19.890625 C10.91032507 21.87987595 11.93177347 23.86813243 12.95898438 25.85351562 C16.51980806 32.79750801 19.032597 38.12644785 18 46 C17.34 46.66 16.68 47.32 16 48 C15.2471875 47.443125 14.494375 46.88625 13.71875 46.3125 C-3.95984198 33.61137567 -22.51742717 26.47221611 -44 23 C-42.32672744 18.32421967 -40.16544273 15.68647655 -36 13 C-30.45116342 10.47780155 -24.69829727 9.13372882 -18.80249023 7.62744141 C-8.63783559 5.22975408 -8.63783559 5.22975408 0 0 Z " fill="#F5CA42" transform="translate(303,120)"/>
<path d="M0 0 C0.90878906 0.45890625 1.81757813 0.9178125 2.75390625 1.390625 C10.61548938 5.26175512 18.0260835 7.94341601 26.546875 10.046875 C34.51103998 12.24512868 40.66325221 15.68016709 46 22 C46 22.66 46 23.32 46 24 C44.49373047 24.14695313 44.49373047 24.14695313 42.95703125 24.296875 C22.91843031 26.41048497 3.94806551 33.40612822 -11.75 46.25 C-14 48 -14 48 -17 49 C-18.41433651 35.4852289 -12.96055989 26.92472766 -6.25 15.75 C-3.21483263 10.67547299 -1.33530653 5.74817668 0 0 Z " fill="#F6CA42" transform="translate(196,120)"/>
<path d="M0 0 C0.99 0.66 1.98 1.32 3 2 C2.52691406 2.59683594 2.05382812 3.19367188 1.56640625 3.80859375 C-12.16811945 21.82679219 -18.62543814 40.83214645 -22 63 C-31.72625252 57.37575843 -34.06147527 48.59154077 -36.86547852 38.26049805 C-37.27827267 36.70858897 -37.68162791 35.15412801 -38.07397461 33.59692383 C-39.27831189 28.98509473 -40.858086 24.93343931 -43.11523438 20.73095703 C-44 19 -44 19 -45 16 C-44.31679687 15.85046875 -43.63359375 15.7009375 -42.9296875 15.546875 C-33.74322059 13.15040537 -26.12790751 8.98481318 -18.04443359 4.06542969 C-12.04001686 0.56546544 -7.0047257 -1.32554846 0 0 Z " fill="#F6CA42" transform="translate(165,180)"/>
<path d="M0 0 C0.763125 0.515625 1.52625 1.03125 2.3125 1.5625 C3.54110814 2.37584432 4.77036813 3.1882042 6 4 C6.77730469 4.52078125 7.55460938 5.0415625 8.35546875 5.578125 C25.10085255 16.56032649 41.34838327 22.11776288 61 25 C61.495 26.485 61.495 26.485 62 28 C56.64092741 37.08712309 44.43617831 38.75054982 35.01953125 41.26757812 C28.22893463 43.15289625 22.17742946 45.60301322 16 49 C15.85449707 48.34515625 15.70899414 47.6903125 15.55908203 47.015625 C13.68749886 39.36172818 10.64661392 32.88924253 6.875 26 C5.78735387 23.98008576 4.70133734 21.95929295 3.6171875 19.9375 C3.13878418 19.05964844 2.66038086 18.18179687 2.16748047 17.27734375 C0.12061765 13.28463434 -0.1101633 10.24518703 -0.0625 5.8125 C-0.05347656 4.72582031 -0.04445312 3.63914062 -0.03515625 2.51953125 C-0.02355469 1.68808594 -0.01195312 0.85664063 0 0 Z " fill="#F7CB43" transform="translate(180,332)"/>
<path d="M0 0 C10.39827386 -1.41794643 17.09680912 1.96322609 25.88720703 6.84033203 C29.44363577 8.79238154 33.06432131 10.613336 36.6875 12.4375 C37.3465332 12.77910156 38.00556641 13.12070313 38.68457031 13.47265625 C42.10256799 15.21080081 45.18890254 16.48262348 49 17 C48.57589844 17.74378906 48.15179688 18.48757812 47.71484375 19.25390625 C43.10483181 27.83562078 40.15188003 36.37660178 37.74975586 45.82641602 C35.94813075 52.40834558 33.44534831 57.65028578 28 62 C27.01 62 26.02 62 25 62 C24.89042969 61.28457031 24.78085937 60.56914062 24.66796875 59.83203125 C24.14543059 56.5481126 23.5818684 53.27393044 23 50 C22.81695312 48.96746094 22.63390625 47.93492187 22.4453125 46.87109375 C19.15215758 30.62892845 11.33035996 16.44883326 1.06640625 3.55859375 C0 2 0 2 0 0 Z " fill="#F7CB43" transform="translate(332,179)"/>
<path d="M0 0 C0.495 0.66 0.99 1.32 1.5 2 C6.44320288 7.93184346 11.97614684 13.18091747 18 18 C13 22 13 22 10.4375 23.75 C7.22127869 26.71881967 5.72576248 30.02785395 4 34 C0.875 34.5 0.875 34.5 -3 34 C-4.82750222 32.15492564 -6.16102088 30.19582537 -7.59765625 28.03515625 C-10.4763288 23.8574727 -14.66725116 21.47585648 -19 19 C-16.19077102 16.01519421 -13.42202087 13.54109907 -10.0625 11.1875 C-5.78750462 8.0806248 -2.92348095 4.36307384 0 0 Z " fill="#F4C942" transform="translate(250,109)"/>
<path d="M0 0 C8.25 0 16.5 0 25 0 C24.67 1.32 24.34 2.64 24 4 C23.90650674 6.3318318 23.87005572 8.66629991 23.875 11 C23.87242187 12.216875 23.86984375 13.43375 23.8671875 14.6875 C23.87561731 17.86033645 23.87561731 17.86033645 24.6015625 20.29296875 C24.79878906 21.13794922 24.79878906 21.13794922 25 22 C23.5 24.3125 23.5 24.3125 21 26 C17.875 25.75 17.875 25.75 14 25 C12.29368891 24.89602167 10.58432295 24.83539272 8.875 24.8125 C8.06804687 24.79832031 7.26109375 24.78414062 6.4296875 24.76953125 C3.48415563 24.93368585 3.48415563 24.93368585 -1 27 C-0.67 18.09 -0.34 9.18 0 0 Z " fill="#F4C942" transform="translate(151,151)"/>
<path d="M0 0 C4.41588541 0.93412961 5.36046274 3.03423675 7.8125 6.6484375 C10.79303392 10.87626007 14.43056992 13.03512397 19.25 14.6875 C14.95611523 19.05152082 10.45029051 23.12274837 5.87109375 27.1875 C3.39930207 29.54509564 1.31225193 31.97017982 -0.75 34.6875 C-1.05550781 34.22601563 -1.36101562 33.76453125 -1.67578125 33.2890625 C-5.63857478 27.64068636 -10.35683857 23.26614305 -15.5546875 18.7890625 C-16.27914062 18.09554688 -17.00359375 17.40203125 -17.75 16.6875 C-17.75 16.0275 -17.75 15.3675 -17.75 14.6875 C-16.904375 14.3575 -16.05875 14.0275 -15.1875 13.6875 C-9.61005393 10.44244047 -5.67952283 1.41988071 0 0 Z " fill="#F4C942" transform="translate(250.75,357.3125)"/>
<path d="M0 0 C-0.0721875 0.69222656 -0.144375 1.38445312 -0.21875 2.09765625 C-1.01067915 10.44590936 -1.07757727 18.62165435 -1 27 C-9.58 27 -18.16 27 -27 27 C-26.34 24.36 -25.68 21.72 -25 19 C-24.72934618 16.53945786 -24.72934618 16.53945786 -24.8125 14.375 C-24.82539063 13.62734375 -24.83828125 12.8796875 -24.8515625 12.109375 C-24.96994961 9.77270393 -24.96994961 9.77270393 -25.6875 6.625 C-26 4 -26 4 -24.875 2.0625 C-22.26917102 0.58586358 -20.89484518 1.38619329 -18 2 C-16.16909256 2.11311641 -14.33435313 2.17461831 -12.5 2.1875 C-11.5821875 2.20167969 -10.664375 2.21585937 -9.71875 2.23046875 C-6.23859352 1.93545548 -3.41636107 0 0 0 Z " fill="#F4C942" transform="translate(351,323)"/>
<path d="M0 0 C13.365 0.495 13.365 0.495 27 1 C27 9.25 27 17.5 27 26 C25.35 25.67 23.7 25.34 22 25 C19.83484875 24.90889215 17.66706136 24.86993677 15.5 24.875 C13.84484375 24.87113281 13.84484375 24.87113281 12.15625 24.8671875 C9.31507756 24.98674179 6.76192358 25.35074185 4 26 C4 25.34 4 24.68 4 24 C3.01 23.67 2.02 23.34 1 23 C1.165 22.236875 1.33 21.47375 1.5 20.6875 C2.51803341 13.17950357 2.41386303 7.2415891 0 0 Z " fill="#F4C942" transform="translate(323,150)"/>
<path d="M0 0 C1.72727117 2.24834739 3.22530233 4.39861181 4.625 6.875 C6.95168914 9.93643308 8.5276026 11.07060219 11.75 13 C15.85753275 15.62008734 15.85753275 15.62008734 17.125 19 C15.56504674 23.15987536 12.98742008 24.25871533 9.265625 26.48828125 C5.25694222 29.16304028 3.51783059 32.44650823 2 37 C-1.96447002 35.46969667 -3.77259801 33.02140332 -6.3125 29.6875 C-9.8783368 25.18887808 -13.13115627 22.00418017 -18 19 C-15.50425042 16.40026085 -12.88420299 14.05990748 -10.125 11.75 C-6.0858897 8.26305271 -3.00872585 4.3877252 0 0 Z " fill="#F5C942" transform="translate(127,232)"/>
<path d="M0 0 C0.66 0 1.32 0 2 0 C3.40838191 1.81332893 4.75125756 3.67773353 6.0625 5.5625 C10.02090382 11.09299529 14.32008544 15.18653491 20 19 C19.29875 19.556875 18.5975 20.11375 17.875 20.6875 C16.92625 21.450625 15.9775 22.21375 15 23 C14.05125 23.721875 13.1025 24.44375 12.125 25.1875 C8.0812313 28.53624595 5.09631607 32.79523942 2 37 C-0.26722339 34.85947438 -1.99390612 32.6325138 -3.75 30.0625 C-6.7016059 26.03556029 -9.52676192 24.14715428 -14 22 C-14.5625 19.4375 -14.5625 19.4375 -14 16 C-11.89878472 14.11429398 -9.64434874 12.56921062 -7.3359375 10.9453125 C-3.72706888 7.93993362 -1.90730168 4.22673387 0 0 Z " fill="#F5CA42" transform="translate(372,231)"/>
<path d="M0 0 C2.475 0.495 2.475 0.495 5 1 C6.99839247 1.09035285 8.99957253 1.13010313 11 1.125 C12.5159375 1.12886719 12.5159375 1.12886719 14.0625 1.1328125 C16.98265918 1.09154153 16.98265918 1.09154153 19.6875 0.3671875 C22 0 22 0 25 2 C25.19656178 4.82334192 25.23375099 7.43665906 25.125 10.25 C25.08111272 11.75507538 25.04196479 13.26029725 25.0078125 14.765625 C24.97131592 15.76770996 24.97131592 15.76770996 24.93408203 16.79003906 C25.01635852 19.54843463 25.54632088 22.27792528 26 25 C17.42 25 8.84 25 0 25 C0 16.75 0 8.5 0 0 Z " fill="#F6CB43" transform="translate(151,325)"/>
<path d="M0 0 C3.6241364 1.51900022 5.857624 3.68070454 8.5625 6.5 C10.9961985 9.02809153 13.07009401 11.04672934 16 13 C14.34136495 17.32504836 11.128959 20.09418825 7.875 23.25 C7.31167969 23.80429688 6.74835938 24.35859375 6.16796875 24.9296875 C4.78313972 26.29104485 3.39216796 27.64614859 2 29 C-3.03163018 24.70214922 -8.02718443 20.36574458 -13 16 C-11.59368017 12.88103324 -9.90245104 10.54597146 -7.625 8 C-7.00753906 7.3090625 -6.39007813 6.618125 -5.75390625 5.90625 C-3.889351 3.87974006 -1.9867193 1.90725053 0 0 Z " fill="#070501" transform="translate(268,169)"/>
</svg>
